<?xml version="1.0" encoding="utf-8"?>
<!-- Generator: Adobe Illustrator 16.0.0, SVG Export Plug-In . SVG Version: 6.00 Build 0)  -->
<!DOCTYPE svg PUBLIC "-//W3C//DTD SVG 1.1//EN" "http://www.w3.org/Graphics/SVG/1.1/DTD/svg11.dtd">
<svg version="1.1" id="圖層_1" xmlns="http://www.w3.org/2000/svg" xmlns:xlink="http://www.w3.org/1999/xlink" x="0px" y="0px"
	 width="46px" height="46px" viewBox="0 0 46 46" enable-background="new 0 0 46 46" xml:space="preserve">
<path fill="#808080" d="M38.65,22.221c-1.11-1.047-2.359-1.482-3.627-1.469c-1.18,0.014-2.374,0.414-3.486,1.071
	c-1.021,0.601-2.457,1.176-3.51,0.38c-3.423-2.588,2.003-6.086,2.316-8.971c0.239-2.215-0.673-4.56-4.147-5.312
	c-2.331-0.503-4.918,1.169-5.829,3.791c-0.657,1.885-0.071,3.911,0.36,5.777c0.207,0.895,0.614,1.658-0.166,2.313
	c-0.547,0.462-1.517,0.755-2.227,0.651c-1.756-0.262-2.413-2.464-2.914-3.882c-0.619-1.747-1.715-3.589-3.57-4.269
	c-3.483-1.278-7.936,2.949-7.365,6.402c0.462,2.8,2.96,4.961,5.696,5.413c1.818,0.297,3.665,0.094,5.494,0.238
	c0.968,0.078,2.619,0.443,1.502,1.562c-2.039,2.039-5.47,1.043-6.152,4.615c-0.487,2.549,0.927,7.443,4.389,6.645
	c1.674-0.386,2.306-2.534,2.863-3.918c0.467-1.162,1.8-5.193,3.682-3.406c0.897,0.854,0.557,1.877,0.285,2.907
	c-0.656,2.476-0.025,6.081,2.689,7.149c0.943,0.373,2.388,0.001,3.32-0.299c1.233-0.398,2.837-1.412,3.253-2.713
	c0.342-1.07,0.016-2.306-0.371-3.316c-0.595-1.56-1.785-2.789-3.003-3.864c-0.915-0.808-1.587-2.388-0.67-3.432
	c1.243-1.421,3.4-0.229,4.827,0.239c1.457,0.477,3.181,1.124,4.737,0.846C38.965,27.021,40.154,23.641,38.65,22.221z"/>
</svg>
