<?xml version="1.0" encoding="utf-8"?>
<!-- Generator: Adobe Illustrator 16.0.0, SVG Export Plug-In . SVG Version: 6.00 Build 0)  -->
<!DOCTYPE svg PUBLIC "-//W3C//DTD SVG 1.1//EN" "http://www.w3.org/Graphics/SVG/1.1/DTD/svg11.dtd">
<svg version="1.1" id="圖層_1" xmlns="http://www.w3.org/2000/svg" xmlns:xlink="http://www.w3.org/1999/xlink" x="0px" y="0px"
	 width="46px" height="46px" viewBox="0 0 46 46" enable-background="new 0 0 46 46" xml:space="preserve">
<g>
	<g>
		<path fill-rule="evenodd" clip-rule="evenodd" fill="#808080" d="M22.977,33.164c-1.525,2.746-3.807,4.187-6.82,4.213
			c-3.197,0.027-6.061-2.145-7.182-5.297c-0.467-1.319-0.52-2.69-0.485-4.073c0.005-0.233-0.03-0.388-0.263-0.512
			c-1.742-0.956-2.695-2.476-2.889-4.54c-0.243-2.625,1.445-5.18,3.877-5.791c0.529-0.133,1.073-0.193,1.611-0.287
			c2.646-0.466,5.197-1.278,7.68-2.327c3.768-1.595,7.369-3.529,10.743-5.919c1.544-1.094,3.218-1.066,4.729,0.082
			c0.822,0.621,1.472,1.418,1.997,2.315c1.678,2.831,2.383,5.984,2.699,9.255c0.211,2.207,0.182,4.414-0.066,6.621
			c-0.285,2.509-0.835,4.94-1.89,7.224c-0.67,1.464-1.513,2.8-2.796,3.761c-1.465,1.094-3.146,1.133-4.619,0.058
			c-0.478-0.348-0.887-0.804-1.312-1.229c-0.316-0.312-0.58-0.693-0.922-0.975c-1.161-0.952-2.346-1.873-3.521-2.803
			c-0.094-0.074-0.207-0.123-0.337-0.195C23.122,32.897,23.051,33.03,22.977,33.164z M35.016,13.811
			c-0.492-1.159-1.087-2.254-2.018-3.102c-0.992-0.901-1.891-0.909-2.886,0.007c-1.021,0.94-1.651,2.167-2.161,3.46
			c-0.912,2.302-1.336,4.715-1.494,7.194c-0.183,2.843,0.014,5.65,0.674,8.416c0.387,1.62,0.91,3.194,1.819,4.58
			c0.411,0.629,0.919,1.217,1.478,1.706c0.754,0.658,1.521,0.608,2.323-0.016c0.937-0.73,1.538-1.74,2.047-2.812
			c0.921-1.947,1.445-4.022,1.688-6.172c0.158-1.424,0.22-2.858,0.323-4.289C36.646,19.686,36.23,16.661,35.016,13.811z
			 M14.908,34.561c2.779,0.78,5.307-1.037,6.049-3.156c-3.131-1.646-6.426-2.727-9.894-3.249
			C10.648,31.213,12.277,33.822,14.908,34.561z"/>
		<path fill-rule="evenodd" clip-rule="evenodd" fill="#808080" d="M28.791,18.143c-0.635,3.82-0.591,7.611,0.236,11.399
			c2.059-0.567,3.643-3.111,3.607-5.726C32.597,21.1,30.962,18.664,28.791,18.143z"/>
	</g>
	<path fill="#808080" d="M32.426,13.64c-0.609-0.697-1.164-0.702-1.777,0.005c-0.628,0.726-1.017,1.672-1.332,2.672
		c-0.561,1.778-0.823,3.642-0.921,5.556c-0.113,2.195,0.007,4.365,0.415,6.502c0.239,1.251,0.562,2.467,1.123,3.537
		c0.252,0.486,0.565,0.939,0.908,1.317c0.467,0.509,0.94,0.472,1.434-0.012c0.576-0.563,0.946-1.343,1.262-2.173
		c0.568-1.503,0.891-3.106,1.039-4.766c0.1-1.102,0.139-2.209,0.201-3.314c-0.102-2.393-0.358-4.729-1.107-6.93
		C33.366,15.14,33,14.293,32.426,13.64z"/>
</g>
</svg>
