<?xml version="1.0" encoding="utf-8"?>
<!-- Generator: Adobe Illustrator 16.0.0, SVG Export Plug-In . SVG Version: 6.00 Build 0)  -->
<!DOCTYPE svg PUBLIC "-//W3C//DTD SVG 1.1//EN" "http://www.w3.org/Graphics/SVG/1.1/DTD/svg11.dtd">
<svg version="1.1" id="圖層_1" xmlns="http://www.w3.org/2000/svg" xmlns:xlink="http://www.w3.org/1999/xlink" x="0px" y="0px"
	 width="46px" height="46px" viewBox="0 0 46 46" enable-background="new 0 0 46 46" xml:space="preserve">
<g>
	<path fill="#808080" d="M27.492,40.138h-8.717c-0.608,0-1.09,0.493-1.09,1.09c0,0.607,0.493,1.089,1.09,1.089h8.717
		c0.608,0,1.089-0.491,1.089-1.089C28.581,40.631,28.087,40.138,27.492,40.138z"/>
	<path fill="#808080" d="M5.945,22.164H3.528c-0.676,0-1.21,0.546-1.21,1.209c0,0.666,0.548,1.211,1.21,1.211h2.417
		c0.676,0,1.21-0.545,1.21-1.211C7.156,22.71,6.622,22.164,5.945,22.164z"/>
	<path fill="#808080" d="M42.739,22.164h-2.418c-0.674,0-1.21,0.546-1.21,1.209c0,0.666,0.548,1.211,1.21,1.211h2.418
		c0.675,0,1.21-0.545,1.21-1.211C43.949,22.71,43.415,22.164,42.739,22.164z"/>
	<path fill="#808080" d="M36.123,8.65l-1.697,1.72c-0.476,0.482-0.462,1.246,0.01,1.711c0.474,0.467,1.248,0.461,1.712-0.01
		l1.698-1.721c0.474-0.48,0.46-1.245-0.013-1.713C37.361,8.172,36.595,8.168,36.123,8.65z"/>
	<path fill="#808080" d="M10.144,8.65l1.699,1.72c0.474,0.482,0.459,1.246-0.013,1.711c-0.472,0.467-1.247,0.461-1.711-0.01
		L8.421,10.35C7.947,9.869,7.96,9.104,8.434,8.637C8.905,8.172,9.67,8.168,10.144,8.65z"/>
	<path fill="#808080" d="M24.343,7.075V4.658c0-0.675-0.546-1.211-1.21-1.211c-0.665,0-1.211,0.548-1.211,1.211v2.417
		c0,0.675,0.546,1.21,1.211,1.21C23.797,8.285,24.343,7.75,24.343,7.075z"/>
	<path fill="#808080" d="M35.623,23.755c0-3.425-1.364-6.632-3.835-8.998c-2.472-2.377-5.72-3.604-9.157-3.48
		c-6.591,0.263-11.965,5.836-11.985,12.437c-0.011,2.923,1.015,5.773,2.892,8.014c2.702,3.25,4.19,0.634,4.19,4.837
		c0,0-0.283,0.435,1.091,0.435h8.63c1.406,0,1.091-0.435,1.091-0.435c0-4.108,1.508-2.209,4.369-5.792
		C34.679,28.543,35.623,26.606,35.623,23.755z"/>
</g>
</svg>
