<?xml version="1.0" encoding="utf-8"?>
<!-- Generator: Adobe Illustrator 16.0.0, SVG Export Plug-In . SVG Version: 6.00 Build 0)  -->
<!DOCTYPE svg PUBLIC "-//W3C//DTD SVG 1.1//EN" "http://www.w3.org/Graphics/SVG/1.1/DTD/svg11.dtd">
<svg version="1.1" id="圖層_1" xmlns="http://www.w3.org/2000/svg" xmlns:xlink="http://www.w3.org/1999/xlink" x="0px" y="0px"
	 width="46px" height="46px" viewBox="0 0 46 46" enable-background="new 0 0 46 46" xml:space="preserve">
<path fill="#808080" d="M37.441,21.286H12.66l23.174-8.441c0.213-0.078,0.386-0.235,0.481-0.439
	c0.094-0.204,0.104-0.438,0.026-0.649l-1.514-4.159c-0.162-0.441-0.646-0.667-1.09-0.509L7.271,16.73
	c-0.211,0.078-0.383,0.234-0.479,0.439c-0.096,0.204-0.105,0.438-0.031,0.65l1.515,4.159c0.03,0.073,0.067,0.141,0.11,0.202v17.537
	c0,0.47,0.382,0.849,0.851,0.849h28.204c0.467,0,0.85-0.379,0.85-0.849V26.561v-4.426C38.291,21.666,37.908,21.286,37.441,21.286z
	 M33.943,10.14l0.514,1.4l-0.793,0.289L33.943,10.14z M27.622,11.125l3.282-1.197l-0.513,3.092l-3.284,1.196L27.622,11.125z
	 M21.061,13.514l3.283-1.196l-0.514,3.092l-3.285,1.196L21.061,13.514z M14.502,15.904l3.283-1.196l-0.515,3.091l-3.284,1.196
	L14.502,15.904z M11.225,17.097l-0.514,3.092l-1.129,0.41l-0.931-2.564L11.225,17.097z M11.318,25.712h-1.201v-2.728h2.744
	L11.318,25.712z M18.301,25.712h-3.498l1.545-2.728h3.496L18.301,25.712z M25.281,25.712h-3.496l1.543-2.728h3.494L25.281,25.712z
	 M32.264,25.712h-3.496l1.541-2.728h3.496L32.264,25.712z M36.592,25.712h-0.844l0.844-1.489V25.712z"/>
</svg>
