<?xml version="1.0" encoding="utf-8"?>
<!-- Generator: Adobe Illustrator 16.0.0, SVG Export Plug-In . SVG Version: 6.00 Build 0)  -->
<!DOCTYPE svg PUBLIC "-//W3C//DTD SVG 1.1//EN" "http://www.w3.org/Graphics/SVG/1.1/DTD/svg11.dtd">
<svg version="1.1" id="圖層_1" xmlns="http://www.w3.org/2000/svg" xmlns:xlink="http://www.w3.org/1999/xlink" x="0px" y="0px"
	 width="46px" height="46px" viewBox="0 0 46 46" enable-background="new 0 0 46 46" xml:space="preserve">
<g>
	<path fill="#808080" d="M35.998,8.326l-16.551,5.116c-1.695,0.485-3.07,2.253-3.07,3.95v14.563c0,0,0,0.197,0,0.203
		c0,0-1.015-0.684-3.273-0.365c-3.319,0.472-6.009,3.019-6.009,5.69c0,2.671,2.69,4.308,6.009,3.836
		c3.32-0.468,5.753-2.938,5.753-5.609c0,0,0-11.424,0-12.608c0-1.185,1.424-1.692,1.424-1.692l14.928-4.714
		c0,0,1.37-0.459,1.37,0.809c0,1.267,0,10.119,0,10.119s0,0.002,0,0.007c0,0-1.26-0.725-3.52-0.451
		c-3.318,0.401-6.008,2.896-6.008,5.566c0,2.673,2.69,4.364,6.008,3.961c3.32-0.402,6.01-2.895,6.01-5.567V10.521
		C39.068,8.825,37.692,7.842,35.998,8.326z"/>
</g>
</svg>
