<?xml version="1.0" encoding="utf-8"?>
<!-- Generator: Adobe Illustrator 16.0.0, SVG Export Plug-In . SVG Version: 6.00 Build 0)  -->
<!DOCTYPE svg PUBLIC "-//W3C//DTD SVG 1.1//EN" "http://www.w3.org/Graphics/SVG/1.1/DTD/svg11.dtd">
<svg version="1.1" id="圖層_1" xmlns="http://www.w3.org/2000/svg" xmlns:xlink="http://www.w3.org/1999/xlink" x="0px" y="0px"
	 width="46px" height="46px" viewBox="0 0 46 46" enable-background="new 0 0 46 46" xml:space="preserve">
<g>
	<g id="Layer_5_1_">
		<g>
			<path fill="#808080" d="M24.195,17.088H7.71c-1.378,0-2.504,1.127-2.504,2.506v16.48c0,1.377,1.126,2.508,2.504,2.508h16.485
				c1.375,0,2.503-1.131,2.503-2.508v-16.48C26.698,18.215,25.571,17.088,24.195,17.088z M10.255,35.869
				c-1.293,0-2.342-1.045-2.342-2.338s1.048-2.342,2.342-2.342c1.293,0,2.342,1.049,2.342,2.342S11.548,35.869,10.255,35.869z
				 M10.255,24.475c-1.293,0-2.342-1.049-2.342-2.34c0-1.293,1.048-2.342,2.342-2.342c1.293,0,2.342,1.049,2.342,2.342
				C12.597,23.426,11.548,24.475,10.255,24.475z M15.953,29.877c-1.293,0-2.342-1.049-2.342-2.342s1.049-2.34,2.342-2.34
				c1.292,0,2.341,1.047,2.341,2.34S17.245,29.877,15.953,29.877z M21.65,35.869c-1.292,0-2.341-1.045-2.341-2.338
				s1.048-2.344,2.341-2.344c1.293,0,2.341,1.051,2.341,2.344S22.943,35.869,21.65,35.869z M21.65,24.475
				c-1.292,0-2.341-1.049-2.341-2.34c0-1.293,1.048-2.342,2.341-2.342c1.293,0,2.341,1.049,2.341,2.342
				C23.991,23.426,22.943,24.475,21.65,24.475z"/>
			<path fill="#808080" d="M35.308,6.729H17.515c-1.487,0-2.703,1.215-2.703,2.703v4.041c0,0-0.047,1.008,1.111,1.008
				c2.155,0,9.016,0,9.016,0c2.466,0,4.473,2.006,4.473,4.475v9.799c0,1.172,1.053,1.172,1.603,1.172c2.125,0,4.292,0,4.292,0
				c1.486,0,2.703-1.217,2.703-2.701V9.432C38.011,7.943,36.794,6.729,35.308,6.729z M32.561,14.707
				c-1.396,0-2.526-1.133-2.526-2.527c0-1.398,1.13-2.529,2.526-2.529c1.396,0,2.527,1.131,2.527,2.529
				C35.087,13.574,33.957,14.707,32.561,14.707z"/>
		</g>
	</g>
</g>
</svg>
