<?xml version="1.0" encoding="utf-8"?>
<!-- Generator: Adobe Illustrator 16.0.0, SVG Export Plug-In . SVG Version: 6.00 Build 0)  -->
<!DOCTYPE svg PUBLIC "-//W3C//DTD SVG 1.1//EN" "http://www.w3.org/Graphics/SVG/1.1/DTD/svg11.dtd">
<svg version="1.1" id="圖層_1" xmlns="http://www.w3.org/2000/svg" xmlns:xlink="http://www.w3.org/1999/xlink" x="0px" y="0px"
	 width="46px" height="46px" viewBox="0 0 46 46" enable-background="new 0 0 46 46" xml:space="preserve">
<g>
	<path fill="#808080" d="M7.766,13.956c-1.316-0.547-2.739-0.132-3.173,0.923c-0.434,1.052,0.281,2.348,1.597,2.893
		c1.317,0.544,2.69,0.11,3.127-0.944C9.75,15.775,9.084,14.499,7.766,13.956z"/>
	<path fill="#808080" d="M37.823,14.903c-0.437-1.052-1.859-1.464-3.174-0.918c-1.318,0.547-2.028,1.844-1.59,2.896
		c0.437,1.055,1.857,1.466,3.175,0.917C37.548,17.252,38.261,15.953,37.823,14.903z"/>
	<path fill="#808080" d="M36.384,25.771c-1.317-0.544-2.689-0.111-3.126,0.943c-0.434,1.053,0.233,2.33,1.551,2.871
		c1.316,0.547,2.737,0.132,3.173-0.921C38.417,27.611,37.702,26.314,36.384,25.771z"/>
	
		<ellipse transform="matrix(0.382 -0.9242 0.9242 0.382 -23.8406 36.5089)" fill="#808080" cx="15.378" cy="36.081" rx="2.58" ry="2.066"/>
	<path fill="#808080" d="M6.245,25.984c-1.315,0.546-2.029,1.842-1.591,2.895c0.438,1.053,1.859,1.459,3.174,0.915
		c1.316-0.546,2.028-1.843,1.592-2.892C8.982,25.846,7.561,25.437,6.245,25.984z"/>
	<path fill="#808080" d="M14.25,5.306c-1.053,0.436-1.464,1.86-0.917,3.175s1.843,2.027,2.897,1.592
		c1.053-0.441,1.462-1.859,0.917-3.176C16.6,5.583,15.302,4.869,14.25,5.306z"/>
	
		<ellipse transform="matrix(-0.9233 0.384 -0.384 -0.9233 66.2481 58.9617)" fill="#808080" cx="27.238" cy="36.094" rx="2.064" ry="2.578"/>
	<path fill="#808080" d="M26.211,9.847c1.053,0.436,2.351-0.279,2.894-1.597c0.543-1.317,0.129-2.739-0.925-3.173
		c-1.052-0.434-2.349,0.281-2.892,1.597C24.745,7.993,25.159,9.412,26.211,9.847z"/>
	<path fill="#808080" d="M24.795,14.418c-4.231-1.75-9.033,0.249-10.781,4.479c-1.749,4.232,0.247,9.034,4.479,10.781
		c4.232,1.748,9.035-0.246,10.783-4.48C31.024,20.969,29.029,16.167,24.795,14.418z"/>
</g>
</svg>
