<?xml version="1.0" encoding="utf-8"?>
<!-- Generator: Adobe Illustrator 16.0.0, SVG Export Plug-In . SVG Version: 6.00 Build 0)  -->
<!DOCTYPE svg PUBLIC "-//W3C//DTD SVG 1.1//EN" "http://www.w3.org/Graphics/SVG/1.1/DTD/svg11.dtd">
<svg version="1.1" id="圖層_1" xmlns="http://www.w3.org/2000/svg" xmlns:xlink="http://www.w3.org/1999/xlink" x="0px" y="0px"
	 width="46px" height="46px" viewBox="0 0 46 46" enable-background="new 0 0 46 46" xml:space="preserve">
<g>
	<path fill="#808080" d="M14.258,38.775H6.381c-0.488,0-0.879-0.541-0.879-1.207v-4.215c0-0.664,0.391-1.205,0.879-1.205h7.877
		c0.488,0,0.881,0.541,0.881,1.205v4.215C15.139,38.234,14.746,38.775,14.258,38.775z"/>
	<path fill="#808080" d="M25.826,38.775h-7.879c-0.486,0-0.881-0.541-0.881-1.207v-4.215c0-0.664,0.395-1.205,0.881-1.205h7.879
		c0.484,0,0.879,0.541,0.879,1.205v4.215C26.705,38.234,26.311,38.775,25.826,38.775z"/>
	<path fill="#808080" d="M19.992,29.52h-7.877c-0.486,0-0.879-0.538-0.879-1.205v-4.213c0-0.666,0.393-1.205,0.879-1.205h7.877
		c0.488,0,0.881,0.539,0.881,1.205v4.213C20.873,28.981,20.48,29.52,19.992,29.52z"/>
	<path fill="#808080" d="M31.637,29.52h-7.881c-0.484,0-0.879-0.538-0.879-1.205v-4.213c0-0.666,0.395-1.205,0.879-1.205h7.881
		c0.484,0,0.879,0.539,0.879,1.205v4.213C32.516,28.981,32.121,29.52,31.637,29.52z"/>
	<path fill="#808080" d="M37.34,38.775h-7.879c-0.486,0-0.879-0.541-0.879-1.207v-4.215c0-0.664,0.393-1.205,0.879-1.205h7.879
		c0.486,0,0.881,0.541,0.881,1.205v4.215C38.221,38.234,37.826,38.775,37.34,38.775z"/>
	<path fill="#808080" d="M25.613,20.299h-7.879c-0.484,0-0.877-0.541-0.877-1.208v-4.212c0-0.666,0.393-1.206,0.877-1.206h7.879
		c0.486,0,0.879,0.54,0.879,1.206v4.212C26.492,19.758,26.1,20.299,25.613,20.299z"/>
</g>
</svg>
