<?xml version="1.0" encoding="utf-8"?>
<!-- Generator: Adobe Illustrator 16.0.0, SVG Export Plug-In . SVG Version: 6.00 Build 0)  -->
<!DOCTYPE svg PUBLIC "-//W3C//DTD SVG 1.1//EN" "http://www.w3.org/Graphics/SVG/1.1/DTD/svg11.dtd">
<svg version="1.1" id="圖層_1" xmlns="http://www.w3.org/2000/svg" xmlns:xlink="http://www.w3.org/1999/xlink" x="0px" y="0px"
	 width="46px" height="46px" viewBox="0 0 46 46" enable-background="new 0 0 46 46" xml:space="preserve">
<g>
	<path fill="#808080" d="M36.18,13.615c-0.488-0.201-1.066-0.152-1.5,0.135c-2.244,1.502-8.391,5.562-9.814,6.297
		c-1.929,0.988-3.883,1.229-4.608,0.656c-0.233-0.178-0.348-0.457-0.352-0.822c0.018-0.488,0.14-0.873,1.054-1.453
		c0.728-0.457,3.969-2.361,6.174-3.654c0.217,0.439,0.723,0.744,1.312,0.744c0.786,0,1.421-0.549,1.421-1.219v-1.766
		c0-0.451-0.291-0.863-0.755-1.074c-0.466-0.211-1.03-0.184-1.47,0.07c-0.293,0.17-7.209,4.205-8.369,4.938
		c-1.939,1.223-2.179,2.498-2.207,3.389c0,0.006-0.004,0.012-0.004,0.016v0.357v14.758c0,2.289,3.059,3.66,6.02,3.66
		c1.243,0,2.371-0.246,3.256-0.705c1.682-0.877,9.98-6.393,9.98-6.393c0.412-0.221,0.664-0.609,0.664-1.027V14.707
		C36.98,14.24,36.67,13.816,36.18,13.615z"/>
	<path fill="#808080" d="M17.307,15.033c0.539-0.297,6.579-3.75,6.579-3.75c0.395-0.225,0.631-0.604,0.631-1.014v-0.137
		c0-0.449-0.287-0.863-0.751-1.072c-0.46-0.215-1.021-0.193-1.461,0.055c-0.088,0.051-8.791,5.016-10.557,5.92
		c-1.836,0.941-3.52,1.236-4.023,0.766c-0.182-0.174-0.283-0.486-0.283-0.889c0.029-0.352,0.188-1.01,0.918-1.365
		c0.809-0.395,4.07-2.184,6.285-3.402c0.2,0.467,0.724,0.795,1.334,0.795c0.786,0,1.426-0.545,1.426-1.219v-1.76
		c0-0.449-0.289-0.859-0.744-1.072c-0.459-0.213-1.016-0.195-1.453,0.047c-2.453,1.357-7.33,4.043-8.259,4.498
		c-2.004,0.977-2.421,2.785-2.354,3.807v14.898c0,2.293,3.201,3.336,6.175,3.336c1.036,0,2.009-0.123,2.815-0.369
		c0.568-0.17,0.949-0.631,0.949-1.146V20.316C14.533,17.541,15.26,16.156,17.307,15.033z"/>
</g>
</svg>
