<?xml version="1.0" encoding="utf-8"?>
<!-- Generator: Adobe Illustrator 16.0.0, SVG Export Plug-In . SVG Version: 6.00 Build 0)  -->
<!DOCTYPE svg PUBLIC "-//W3C//DTD SVG 1.1//EN" "http://www.w3.org/Graphics/SVG/1.1/DTD/svg11.dtd">
<svg version="1.1" id="圖層_1" xmlns="http://www.w3.org/2000/svg" xmlns:xlink="http://www.w3.org/1999/xlink" x="0px" y="0px"
	 width="46px" height="46px" viewBox="0 0 46 46" enable-background="new 0 0 46 46" xml:space="preserve">
<path fill="#808080" d="M40.585,34.674h-0.569v-9.646h0.001V8.975c-0.001-0.916-0.588-1.658-1.314-1.658
	c-0.724,0-1.312,0.742-1.312,1.658v0.949c-9.528,3.582-19.522,3.59-29.056,0.033V8.975c0-0.916-0.586-1.658-1.311-1.658
	c-0.726,0-1.313,0.742-1.313,1.658v16.084v9.615H5.141c-0.726,0-1.312,0.74-1.312,1.658s0.587,1.66,1.312,1.66h3.763
	c0.726,0,1.313-0.742,1.313-1.66s-0.587-1.658-1.313-1.658H8.334v-8.588c4.437,1.641,8.753,2.656,14.39,2.668
	c0.032,0,0.062,0,0.096,0c5.471,0,9.904-0.967,14.57-2.691v8.611h-0.567c-0.725,0-1.313,0.74-1.313,1.658s0.588,1.66,1.313,1.66
	h3.762c0.726,0,1.313-0.742,1.313-1.66S41.311,34.674,40.585,34.674z M10.911,23.662c-0.862-0.258-1.721-0.551-2.576-0.873v-3.016
	c0.854,0.301,1.713,0.572,2.576,0.82V23.662z M10.911,17.191c-0.862-0.262-1.721-0.555-2.576-0.875v-2.908
	c0.854,0.303,1.713,0.58,2.576,0.826V17.191z M16.168,24.896c-0.88-0.145-1.758-0.322-2.632-0.527v-3.105
	c0.874,0.191,1.751,0.357,2.632,0.496V24.896z M16.168,18.424c-0.88-0.148-1.758-0.322-2.632-0.529v-2.992
	c0.874,0.193,1.751,0.355,2.632,0.496V18.424z M21.507,25.428c-0.905-0.025-1.81-0.086-2.714-0.176v-3.164
	c0.903,0.09,1.807,0.146,2.714,0.172V25.428z M21.507,18.959c-0.905-0.035-1.81-0.092-2.714-0.182v-3.049
	c0.903,0.084,1.807,0.143,2.714,0.17V18.959z M34.777,14.219c0.876-0.254,1.747-0.531,2.613-0.838v2.906
	c-0.867,0.324-1.738,0.621-2.613,0.887V14.219z M26.813,25.254c-0.894,0.088-1.787,0.148-2.681,0.174V22.26
	c0.896-0.025,1.789-0.082,2.681-0.166V25.254z M26.813,18.779c-0.894,0.088-1.787,0.145-2.681,0.176v-3.059
	c0.896-0.025,1.789-0.082,2.681-0.166V18.779z M32.152,24.359c-0.903,0.209-1.808,0.395-2.714,0.547v-3.143
	c0.908-0.141,1.813-0.312,2.714-0.512V24.359z M32.152,17.883c-0.903,0.213-1.808,0.396-2.714,0.547v-3.025
	c0.908-0.145,1.813-0.312,2.714-0.512V17.883z M34.777,20.582c0.876-0.252,1.747-0.531,2.613-0.842v3.021
	c-0.867,0.324-1.738,0.621-2.613,0.887V20.582z"/>
</svg>
