<?xml version="1.0" encoding="utf-8"?>
<!-- Generator: Adobe Illustrator 16.0.0, SVG Export Plug-In . SVG Version: 6.00 Build 0)  -->
<!DOCTYPE svg PUBLIC "-//W3C//DTD SVG 1.1//EN" "http://www.w3.org/Graphics/SVG/1.1/DTD/svg11.dtd">
<svg version="1.1" id="圖層_1" xmlns="http://www.w3.org/2000/svg" xmlns:xlink="http://www.w3.org/1999/xlink" x="0px" y="0px"
	 width="46px" height="46px" viewBox="0 0 46 46" enable-background="new 0 0 46 46" xml:space="preserve">
<path fill="#808080" d="M36.91,20.727c-0.217-0.452-0.705-0.744-1.238-0.744c-1.561,0-10.24,0-10.24,0l4.209-10.266
	c0.158-0.385,0.102-0.817-0.152-1.157c-0.254-0.339-0.672-0.542-1.119-0.542H18.238c-0.562,0-1.07,0.324-1.27,0.812l-6.422,15.65
	c-0.158,0.385-0.102,0.818,0.154,1.158c0.252,0.339,0.674,0.541,1.117,0.541l11.363-0.063L17.18,40.844
	c-0.08,0.193,0.002,0.413,0.195,0.521c0.193,0.108,0.439,0.075,0.59-0.081l18.713-19.208C37.039,21.708,37.129,21.179,36.91,20.727z
	"/>
</svg>
